<svg width="256" height="152" viewBox="0 0 256 152" fill="none" xmlns="http://www.w3.org/2000/svg">
<path fill-rule="evenodd" clip-rule="evenodd" d="M151.547 0C154.277 0 156.491 2.24117 156.491 5.00579V20.8136C156.491 20.8136 155.894 20.8136 172.351 20.8136C188.808 20.8136 176.666 43.7143 174.237 56.161C173.023 61.9286 172.349 64.822 172.351 69.0273C177.351 71.9724 181.965 75.9354 185.165 82.1584L182.819 80.3764C177.367 76.2348 168.49 72.6702 160.429 71.3845C155.765 70.6408 146.766 71.3576 142.002 72.8523L140.957 73.1801L142.387 74.0216C144.411 75.2118 146.304 77.0976 146.868 78.4847C147.402 79.7985 147.547 79.8331 150.551 79.364C154.045 78.8187 165.671 79.0815 164.294 79.6744C164.02 79.7923 162.486 79.9809 160.884 80.0932C155.607 80.4636 148.9 81.71 145.048 83.0362C144.633 83.179 144.301 82.7746 143.68 81.3677C141.735 76.9643 137.224 73.1443 132.074 71.5388L130.67 71.1007L132.308 71.268C134.039 71.4445 137.487 72.0903 138.63 72.4512C139.213 72.6356 139.271 72.5659 139.042 71.9561C137.803 68.6546 134.219 64.8769 130.386 62.8309C126.959 61.0025 123.954 60.3593 119.638 60.5311C116.301 60.6641 112.287 61.4456 112.287 61.9625C112.287 62.0902 112.524 63.0343 112.813 64.0605C113.743 67.3549 114.17 70.8566 113.797 72.1332C113.588 72.8514 113.438 73.0521 113.415 72.6448C113.345 71.3552 111.529 67.6801 109.822 65.3722C104.836 58.6314 96.9219 55.1378 86.6385 55.1378H83.165C83.1713 45.8041 53.5342 20.8136 83.1738 20.8136C112.813 20.8136 98.5865 20.8136 98.5865 20.8136V5.00579C98.5865 2.24117 100.8 0 103.53 0H151.547ZM105.352 20.8136V6.85003H149.725V20.8136H105.352ZM126.75 30.7637C126.003 31.176 125.392 31.6451 125.392 31.8062C125.392 31.9673 126.464 33.0101 127.775 34.1235C131.114 36.9598 135.28 41.2355 135.149 41.6916C135.088 41.9018 133.17 43.1633 130.886 44.4951L126.733 46.9164L123.153 46.5461C119.832 46.2023 119.519 46.2145 118.842 46.7122C117.762 47.5055 117.924 47.864 119.914 49.0963C121.491 50.0731 121.729 50.3628 121.825 51.4189C121.921 52.4809 122.05 52.6363 122.909 52.717C123.758 52.7965 123.935 52.999 124.274 54.2833C124.488 55.0943 124.664 56.0215 124.664 56.344C124.664 57.1205 125.529 57.3549 126.807 56.9248C127.686 56.6292 128.006 56.182 128.894 54.0093L129.942 51.4431L134.674 49.4604C137.277 48.3698 139.508 47.4721 139.631 47.4653C140.025 47.4434 142.168 51.6116 143.805 55.5811C144.77 57.9224 145.596 59.4593 145.92 59.5149C146.212 59.5652 147.124 59.3269 147.948 58.9858L149.445 58.3654L149.199 56.161C148.961 54.0235 148.982 53.9383 149.913 53.3436C151.166 52.5435 151.124 52.0886 149.717 51.1942L148.56 50.4592L149.717 49.6685C151.196 48.6579 151.174 48.2075 149.604 47.3817C148.403 46.7503 148.334 46.6238 148.33 45.0537L148.325 43.3935L152.55 41.3688C157.048 39.2135 159.209 37.5725 160.41 35.4004C160.794 34.7049 161.008 33.8767 160.884 33.5595C160.557 32.724 158.327 32.3113 156.041 32.6634C153.434 33.0648 152.08 33.5746 148.201 35.6152C146.331 36.5986 144.617 37.4035 144.394 37.4035C144.17 37.4035 143.259 37.0467 142.37 36.6104C141.041 35.959 140.714 35.6214 140.537 34.7214C140.293 33.4827 139.645 33.1505 138.288 33.5693C136.922 33.9911 136.677 33.9308 136.677 33.1741C136.677 32.7987 136.458 32.2493 136.191 31.9528C135.763 31.4769 135.549 31.4557 134.37 31.7716C133.112 32.1086 132.912 32.0681 130.942 31.0797C129.791 30.5024 128.683 30.0266 128.48 30.0221C128.276 30.0177 127.498 30.3514 126.75 30.7637Z" fill="white"/>
<path d="M104.131 74.0476C112.607 74.8152 118.562 78.1049 121.142 83.4447C122.104 85.4374 121.891 85.4836 119.658 83.7651C114.063 79.4586 107.752 76.7603 99.0001 74.9334C91.3395 73.3344 101.876 73.8435 104.131 74.0476Z" fill="white"/>
<path d="M28.56 111.566L29.5314 120.794L21.7114 119.24L19.5257 141H10.0543L7.86857 119.24L0 120.794L0.971429 111.566H28.56ZM41.7908 121.134C43.507 118.576 45.6279 117.297 48.1536 117.297C49.3517 117.297 50.4527 117.589 51.4565 118.171L50.2908 126.137C48.9955 125.23 47.5384 124.777 45.9194 124.777C44.3651 124.777 43.3127 125.425 42.7622 126.72C42.4384 127.53 42.2279 128.307 42.1308 129.051L41.2079 141H32.4651L31.0079 117.977H40.5765L41.7908 121.134ZM61.2277 141.486C58.7344 141.486 56.6782 140.757 55.0591 139.3C53.4725 137.843 52.6791 135.787 52.6791 133.131C52.6791 130.444 53.5858 128.501 55.3991 127.303C57.2125 126.072 59.3982 125.457 61.9563 125.457C64.5144 125.457 66.7325 125.862 68.6106 126.671C68.1896 123.984 66.4896 122.64 63.5106 122.64C62.1506 122.64 60.4667 122.915 58.4591 123.466L57.2448 119.094C60.1591 117.896 63.122 117.297 66.1334 117.297C74.8115 117.297 79.1506 120.989 79.1506 128.371C79.1506 130.897 78.8591 134.394 78.2763 138.863L78.0334 141H70.0191L69.7277 138.329C67.5258 140.433 64.6925 141.486 61.2277 141.486ZM65.5991 135.463C67.0563 135.463 68.3029 135.058 69.3391 134.249L69.0477 131.043C68.2382 130.492 67.3315 130.217 66.3277 130.217C65.3563 130.217 64.5467 130.46 63.8991 130.946C63.2839 131.431 62.9763 132.03 62.9763 132.743C62.9763 133.455 63.2191 134.087 63.7048 134.637C64.1906 135.188 64.822 135.463 65.5991 135.463ZM94.2859 132.937C97.0706 129.213 98.463 124.227 98.463 117.977H106.283C106.283 122.381 105.668 126.25 104.437 129.586C103.272 132.727 101.993 135.204 100.6 137.017C99.2725 138.766 98.2364 139.964 97.4916 140.611L96.9573 141H87.243L80.103 117.977H92.1973L94.2859 132.937ZM121.38 141.486C117.721 141.486 114.645 140.433 112.152 138.329C109.691 136.191 108.46 133.067 108.46 128.954C108.46 126.364 109.092 124.162 110.355 122.349C112.654 118.981 116.216 117.297 121.04 117.297C124.732 117.297 127.549 118.042 129.492 119.531C131.435 120.989 132.406 123.012 132.406 125.603C132.406 127.61 131.597 129.246 129.978 130.509C128.391 131.739 126.059 132.354 122.983 132.354C121.72 132.354 120.587 132.257 119.583 132.063L119.049 131.966C119.211 133.131 119.713 134.006 120.555 134.589C121.429 135.139 122.465 135.414 123.663 135.414C125.638 135.414 127.322 134.815 128.715 133.617L131.726 137.26C131.208 137.875 130.593 138.458 129.88 139.009C129.168 139.527 128.035 140.077 126.48 140.66C124.926 141.21 123.226 141.486 121.38 141.486ZM125.315 125.166C125.315 124.518 125.056 123.984 124.538 123.563C124.052 123.142 123.372 122.931 122.498 122.931C121.623 122.931 120.798 123.32 120.02 124.097C119.276 124.874 118.903 125.797 118.903 126.866C119.616 127.19 120.538 127.351 121.672 127.351C122.838 127.351 123.728 127.157 124.343 126.769C124.991 126.348 125.315 125.813 125.315 125.166ZM146.636 109.477L145.325 141H136.387L135.076 109.477H146.636ZM165.475 126.283C166.964 126.283 168.146 125.83 169.02 124.923C169.895 124.016 170.332 122.915 170.332 121.62C170.332 120.292 169.911 119.305 169.069 118.657C168.259 117.977 167.207 117.637 165.912 117.637H163.969L163.143 126.283H165.475ZM168.535 132.5H162.512L161.686 141H152.215L149.3 111.566H170.963C174.363 111.566 177.115 112.44 179.22 114.189C181.357 115.905 182.426 118.382 182.426 121.62C182.426 123.595 182.021 125.311 181.212 126.769C180.435 128.226 179.366 129.359 178.006 130.169C175.383 131.723 172.226 132.5 168.535 132.5ZM195.682 109.477L194.37 141H185.433L184.122 109.477H195.682ZM206.895 141.486C204.401 141.486 202.345 140.757 200.726 139.3C199.139 137.843 198.346 135.787 198.346 133.131C198.346 130.444 199.253 128.501 201.066 127.303C202.879 126.072 205.065 125.457 207.623 125.457C210.181 125.457 212.399 125.862 214.277 126.671C213.856 123.984 212.156 122.64 209.177 122.64C207.817 122.64 206.134 122.915 204.126 123.466L202.912 119.094C205.826 117.896 208.789 117.297 211.8 117.297C220.478 117.297 224.817 120.989 224.817 128.371C224.817 130.897 224.526 134.394 223.943 138.863L223.7 141H215.686L215.395 138.329C213.193 140.433 210.359 141.486 206.895 141.486ZM211.266 135.463C212.723 135.463 213.97 135.058 215.006 134.249L214.715 131.043C213.905 130.492 212.998 130.217 211.995 130.217C211.023 130.217 210.214 130.46 209.566 130.946C208.951 131.431 208.643 132.03 208.643 132.743C208.643 133.455 208.886 134.087 209.372 134.637C209.857 135.188 210.489 135.463 211.266 135.463ZM246.073 117.297C248.339 117.297 250.282 118.252 251.901 120.163C253.553 122.073 254.378 124.567 254.378 127.643C254.378 130.687 254.006 135.139 253.261 141H244.761L243.79 130.12C243.466 126.655 242.527 124.923 240.973 124.923C239.127 124.923 238.139 126.671 238.01 130.169L237.67 141H228.733L227.713 117.977H238.69L238.496 122.106C238.657 121.782 239.03 121.28 239.613 120.6C240.196 119.92 240.762 119.37 241.313 118.949C242.737 117.848 244.324 117.297 246.073 117.297Z" fill="white"/>
</svg>
