<svg width="36" height="36" viewBox="0 0 36 36" fill="none" xmlns="http://www.w3.org/2000/svg">
<path d="M5.65909 20.1812C2.08461 11.7467 9.44311 8.10455 12.9945 6.59952C16.5459 5.09448 24.2808 2.34014 27.8553 10.7747C32.0112 20.5813 25.0646 27.667 22.401 28.7958C19.7375 29.9246 9.81503 29.9878 5.65909 20.1812Z" fill="#9EDDDD" stroke="#23C3C3" stroke-width="2.89286"/>
<path d="M13.1155 16.401C11.2294 15.5762 9.49117 16.6909 8.85782 17.3514C9.01032 18.3555 9.78683 20.57 11.6729 21.3948C13.559 22.2196 15.2972 21.1049 15.9305 20.4445C15.778 19.4403 15.0015 17.2258 13.1155 16.401Z" stroke="#23C3C3" stroke-width="2.89286" stroke-linejoin="round"/>
<path d="M19.8646 13.5404C20.5837 11.6116 22.5936 11.1379 23.5086 11.1421C24.1241 11.9501 25.1752 14.0482 24.4561 15.977C23.737 17.9059 21.7271 18.3796 20.8121 18.3753C20.1966 17.5674 19.1455 15.4693 19.8646 13.5404Z" stroke="#23C3C3" stroke-width="2.89286" stroke-linejoin="round"/>
</svg>
