<svg width="31" height="31" viewBox="0 0 31 31" fill="none" xmlns="http://www.w3.org/2000/svg">
<path d="M4.56093 14.476C3.45736 16.4666 3.91568 18.9955 5.70541 20.4017C6.94244 21.3736 8.22811 22.3355 9.64821 23.3446C11.0683 24.3538 12.3995 25.2516 13.7243 26.1001C15.6408 27.3278 18.1798 26.9288 19.6966 25.2319C20.7182 24.0892 21.737 22.8974 22.6585 21.6006C23.58 20.3039 24.3704 18.9498 25.1136 17.6092C26.2171 15.6186 25.7588 13.0898 23.9691 11.6836C22.7321 10.7117 21.4464 9.74978 20.0263 8.74062C18.6062 7.73145 17.275 6.83368 15.9502 5.98514C14.0337 4.75749 11.4947 5.15643 9.97785 6.85333C8.95634 7.99605 7.93755 9.18788 7.01604 10.4846C6.09453 11.7814 5.3041 13.1355 4.56093 14.476Z" fill="#9EDDDD"/>
<path d="M18.1494 5.2876L15.8381 8.54012" stroke="#23C3C3" stroke-width="2.35714" stroke-linecap="round"/>
<path d="M23.8965 9.37158L21.5851 12.6241" stroke="#23C3C3" stroke-width="2.35714" stroke-linecap="round"/>
<path d="M22.958 19.9922L8.43677 9.67294L12.3134 4.64951L19.6438 9.09783L26.6308 14.8239L22.958 19.9922Z" fill="#9EDDDD"/>
<path d="M4.56093 14.476C3.45736 16.4666 3.91568 18.9955 5.70541 20.4017C6.94244 21.3736 8.22811 22.3355 9.64821 23.3446C11.0683 24.3538 12.3995 25.2516 13.7243 26.1001C15.6408 27.3278 18.1798 26.9288 19.6966 25.2319C20.7182 24.0892 21.737 22.8974 22.6585 21.6006C23.58 20.3039 24.3704 18.9498 25.1136 17.6092C26.2171 15.6186 25.7588 13.0898 23.9691 11.6836C22.7321 10.7117 21.4464 9.74978 20.0263 8.74062C18.6062 7.73145 17.275 6.83368 15.9502 5.98514C14.0337 4.75749 11.4947 5.15643 9.97785 6.85333C8.95634 7.99605 7.93755 9.18788 7.01604 10.4846C6.09453 11.7814 5.3041 13.1355 4.56093 14.476Z" stroke="#23C3C3" stroke-width="2.35714"/>
<path d="M8.59766 9.05322L23.5686 19.692" stroke="#23C3C3" stroke-width="2.35714"/>
</svg>
