<svg width="15" height="14" viewBox="0 0 15 14" fill="none" xmlns="http://www.w3.org/2000/svg">
<path d="M2.07169 11.3031C1.68353 9.63059 1.50441 7.72212 1.43734 6.49909C1.4071 5.94763 1.85165 5.5 2.40393 5.5H12.4039C12.9562 5.5 13.4008 5.94763 13.3705 6.49909C13.3034 7.72212 13.1243 9.63059 12.7362 11.3031C12.5563 12.0781 11.9857 12.6683 11.1983 12.7825C10.387 12.9002 9.15497 13 7.40393 13C5.65289 13 4.42085 12.9002 3.60952 12.7825C2.82211 12.6683 2.25157 12.0781 2.07169 11.3031Z" stroke="#23C3C3" stroke-width="1.5" stroke-linecap="round" stroke-linejoin="round"/>
<path d="M3.90393 5.5V4.5C3.90393 2.567 5.47093 1 7.40393 1V1C9.33693 1 10.9039 2.567 10.9039 4.5V5.5" stroke="#23C3C3" stroke-width="1.5" stroke-linecap="round" stroke-linejoin="round"/>
<path d="M5.40393 8.5V10M9.40393 8.5V10" stroke="#23C3C3" stroke-width="1.5" stroke-linecap="round" stroke-linejoin="round"/>
</svg>
