<svg width="16" height="16" viewBox="0 0 16 16" fill="none" xmlns="http://www.w3.org/2000/svg">
<path d="M2.54698 14.3625C2.97483 14.2861 3.41332 14.1218 3.88104 13.9721C4.58001 13.7484 5.27883 13.495 5.92401 13.3319C6.0841 13.2915 6.25153 13.2944 6.41201 13.3333L10.6595 14.3626C11.3706 14.5182 12.0757 14.2243 12.8638 13.9721C13.3505 13.8164 13.837 13.6462 14.3055 13.5022C14.7943 13.3519 15.1509 12.9097 15.1509 12.3983V3.30207C15.1509 2.79064 14.7883 2.35088 14.2788 2.39505C13.7122 2.44417 13.1065 2.59058 12.6747 2.70206C12.1599 2.83497 11.5682 3.10984 10.9929 3.36731C10.777 3.46392 10.5352 3.48438 10.3054 3.42868L6.16814 2.42613C5.45709 2.27052 4.36379 2.52858 3.69189 2.70206C3.2722 2.81042 2.80131 3.01316 2.32991 3.22389C1.93372 3.401 1.67676 3.79542 1.67676 4.22939V13.4867C1.67676 13.9981 2.04351 14.4524 2.54698 14.3625Z" stroke="black" stroke-width="1.63256" stroke-linejoin="round"/>
<path d="M10.652 14.3609L6.41181 13.3334C6.33167 13.3139 6.2498 13.3035 6.16797 13.3029V2.56432C6.16797 2.51842 6.17082 2.47298 6.17639 2.42822L10.3052 3.42872C10.4218 3.45698 10.5415 3.46564 10.6593 3.45469V14.2326C10.6593 14.2757 10.6568 14.3185 10.652 14.3609Z" stroke="black" stroke-width="1.63256" stroke-linejoin="round"/>
</svg>
