<svg width="24" height="24" viewBox="0 0 24 24" fill="none" xmlns="http://www.w3.org/2000/svg">
<rect width="24" height="24" rx="9" fill="white"/>
<path d="M19.5005 12.1833C19.5005 11.6666 19.4505 11.1333 19.3671 10.6333H12.1504V13.5833H16.2838C16.1171 14.5333 15.5671 15.3667 14.7504 15.9L17.2171 17.8167C18.6671 16.4667 19.5005 14.5 19.5005 12.1833Z" fill="#4280EF"/>
<path d="M12.1498 19.6501C14.2165 19.6501 15.9499 18.9668 17.2165 17.8001L14.7498 15.9001C14.0665 16.3668 13.1832 16.6334 12.1498 16.6334C10.1498 16.6334 8.46644 15.2834 7.84977 13.4834L5.31641 15.4334C6.61642 18.0168 9.24978 19.6501 12.1498 19.6501Z" fill="#34A353"/>
<path d="M7.84978 13.4667C7.53311 12.5167 7.53311 11.4833 7.84978 10.5333L5.31642 8.56665C4.23307 10.7333 4.23307 13.2834 5.31642 15.4334L7.84978 13.4667Z" fill="#F6B704"/>
<path d="M12.1498 7.38327C13.2332 7.3666 14.2998 7.78327 15.0832 8.53328L17.2665 6.33326C15.8832 5.03324 14.0498 4.33323 12.1498 4.3499C9.24978 4.3499 6.61642 5.98325 5.31641 8.56661L7.84977 10.5333C8.46644 8.71661 10.1498 7.38327 12.1498 7.38327Z" fill="#E54335"/>
</svg>
