<svg width="14" height="15" viewBox="0 0 14 15" fill="none" xmlns="http://www.w3.org/2000/svg">
<path d="M7.57758 13.2762C8.85289 12.171 11.797 9.2707 11.797 6.04704C11.797 3.39771 9.64931 1.25 6.99998 1.25C4.35065 1.25 2.20294 3.39771 2.20294 6.04704C2.20294 9.2707 5.14706 12.171 6.42237 13.2762C6.75753 13.5666 7.24243 13.5666 7.57758 13.2762Z" stroke="#23C3C3" stroke-width="1.5" stroke-linecap="round" stroke-linejoin="round"/>
<path d="M7 7.73016C8.08511 7.73016 8.96477 6.85049 8.96477 5.76538C8.96477 4.68026 8.08511 3.8006 7 3.8006C5.91488 3.8006 5.03522 4.68026 5.03522 5.76538C5.03522 6.85049 5.91488 7.73016 7 7.73016Z" stroke="#23C3C3" stroke-width="1.5" stroke-linecap="round" stroke-linejoin="round"/>
</svg>
