<svg width="28" height="28" viewBox="0 0 28 28" fill="none" xmlns="http://www.w3.org/2000/svg">
<path d="M21.0374 2.67451C20.332 2.38497 19.521 2.56154 18.9998 3.11815L12.9602 9.56839L9.27272 6.11567C9.03782 5.89849 8.74889 5.74838 8.43614 5.68105C8.12338 5.61372 7.79829 5.63163 7.49482 5.73292C7.19136 5.8342 6.92067 6.01514 6.71105 6.25681C6.50143 6.49849 6.36057 6.79204 6.3032 7.10677C4.06064 13.366 3.29116 17.0128 2.75883 23.7706C2.7084 24.4109 2.83681 25.0238 3.28545 25.4439C3.73409 25.864 4.4031 25.8988 4.98972 25.8595C11.9463 25.3928 15.5334 24.3624 21.3848 21.2284C21.689 21.1411 21.9646 20.9746 22.1833 20.7458C22.402 20.517 22.556 20.2343 22.6295 19.9264C22.703 19.6186 22.6934 19.2967 22.6017 18.9938C22.5099 18.6909 22.3393 18.4178 22.1073 18.2025L18.4199 14.7498L24.6075 8.1416C25.0451 7.67424 25.171 6.99509 24.9301 6.4019V6.4019C24.2661 4.76731 22.9722 3.4687 21.3401 2.79875L21.0374 2.67451Z" fill="#9EDDDD"/>
<path d="M21.0374 2.67451C20.332 2.38497 19.521 2.56154 18.9998 3.11815L12.9602 9.56839L9.27272 6.11567C9.03782 5.89849 8.74889 5.74838 8.43614 5.68105C8.12338 5.61372 7.79829 5.63163 7.49482 5.73292C7.19136 5.8342 6.92067 6.01514 6.71105 6.25681C6.50143 6.49849 6.36057 6.79204 6.3032 7.10677C4.06064 13.366 3.29116 17.0128 2.75883 23.7706C2.7084 24.4109 2.83681 25.0238 3.28545 25.4439C3.73409 25.864 4.4031 25.8988 4.98972 25.8595C11.9463 25.3928 15.5334 24.3624 21.3848 21.2284C21.689 21.1411 21.9646 20.9746 22.1833 20.7458C22.402 20.517 22.556 20.2343 22.6295 19.9264C22.703 19.6186 22.6934 19.2967 22.6017 18.9938C22.5099 18.6909 22.3393 18.4178 22.1073 18.2025L18.4199 14.7498L24.6075 8.1416C25.0451 7.67424 25.171 6.99509 24.9301 6.4019V6.4019C24.2661 4.76731 22.9722 3.4687 21.3401 2.79875L21.0374 2.67451Z" stroke="#23C3C3" stroke-width="2.78571" stroke-linecap="round" stroke-linejoin="round"/>
</svg>
