<svg width="10" height="10" viewBox="0 0 10 10" fill="none" xmlns="http://www.w3.org/2000/svg">
<path d="M3.41648 5.67725C2.53449 5.75335 1.71618 6.05214 1.01805 6.51711C0.109503 7.12223 0.722999 8.28933 1.81461 8.28933H3.41648" stroke="#23C3C3" stroke-width="1.07143" stroke-linecap="round"/>
<path d="M5.17871 7.25982C5.17871 5.98286 5.53585 5.4356 5.71443 5.25317H8.92871C9.10728 5.4356 9.46443 5.98286 9.46443 7.25982C9.46443 8.71919 8.0574 9.25745 7.34312 9.43988C6.62883 9.25745 5.17871 8.71919 5.17871 7.25982Z" stroke="#23C3C3" stroke-width="1.07143" stroke-linecap="round" stroke-linejoin="round"/>
<path d="M3.86521 4.26484C4.89102 4.26484 5.72261 3.43326 5.72261 2.40745C5.72261 1.38163 4.89102 0.550049 3.86521 0.550049C2.8394 0.550049 2.00781 1.38163 2.00781 2.40745C2.00781 3.43326 2.8394 4.26484 3.86521 4.26484Z" stroke="#23C3C3" stroke-width="1.07143" stroke-linecap="round" stroke-linejoin="round"/>
</svg>
