<svg width="13" height="14" viewBox="0 0 13 14" fill="none" xmlns="http://www.w3.org/2000/svg">
<path d="M4.15359 2.24595C3.54204 1.73343 2.63086 1.8071 2.16685 2.45624C2.04291 2.62962 1.89605 2.83643 1.64238 3.15373C0.769759 4.24529 0.769762 5.82584 1.64721 6.91353C2.29495 7.71648 2.9741 8.5267 3.73331 9.2859C4.49252 10.0451 5.30273 10.7243 6.10568 11.372C7.19337 12.2495 8.77392 12.2495 9.86548 11.3768C10.204 11.1062 10.4152 10.9587 10.5945 10.8307C11.2216 10.3829 11.3094 9.50451 10.8198 8.90956C10.4329 8.43942 10.0021 7.99089 9.58646 7.55307C9.25538 7.20431 8.70247 7.18152 8.3267 7.48161C8.22564 7.56232 8.10015 7.6687 7.84573 7.90723C6.59713 7.16529 5.8404 6.39932 5.11199 5.17349C5.35341 4.91597 5.45989 4.79012 5.5413 4.68808C5.84087 4.31261 5.81863 3.76113 5.4678 3.43306C5.04021 3.03321 4.60505 2.62431 4.15359 2.24595Z" stroke="#23C3C3" stroke-width="1.29177" stroke-linejoin="round"/>
</svg>
