<svg width="15" height="14" viewBox="0 0 15 14" fill="none" xmlns="http://www.w3.org/2000/svg">
<path d="M11.2072 6.44921C11.1703 5.72846 10.9617 5.02925 10.6084 4.35695C10.4867 4.12522 10.2611 3.96838 10.0044 3.91689C9.13834 3.74315 8.47516 3.65845 7.4174 3.65845C6.36151 3.65845 5.66836 3.74284 4.83968 3.91597C4.59237 3.96763 4.37497 4.11858 4.25565 4.34127C3.9031 4.99925 3.69363 5.70972 3.654 6.4297C3.31452 6.50287 2.97192 6.58316 2.62315 6.66902C2.27505 6.75471 2.00636 7.03192 1.91145 7.37761C1.90639 7.39602 1.90132 7.41445 1.89625 7.4329C1.75731 7.93819 1.61328 8.462 1.61328 8.99884C1.61328 9.50379 1.74071 9.99721 1.87147 10.4745C1.9859 10.8923 2.35824 11.1969 2.79093 11.2161C3.07975 11.2289 3.37128 11.2427 3.66533 11.2567C4.88116 11.3142 6.1402 11.3738 7.42985 11.3738C8.7195 11.3738 9.97854 11.3142 11.1944 11.2567C11.4884 11.2427 11.7799 11.2289 12.0688 11.2161C12.5015 11.1969 12.8738 10.8923 12.9882 10.4745C13.119 9.99721 13.2464 9.50379 13.2464 8.99884C13.2464 8.462 13.1024 7.9382 12.9635 7.43291C12.9596 7.41882 12.9557 7.40474 12.9518 7.39068C12.855 7.03821 12.5773 6.75811 12.2212 6.6756C11.8861 6.59794 11.548 6.52141 11.2072 6.44921Z" stroke="black" stroke-width="1.42849" stroke-linejoin="round"/>
<path d="M4.74428 12.3755C5.55822 12.3755 6.21805 11.7157 6.21805 10.9017C6.21805 10.0878 5.55822 9.42798 4.74428 9.42798C3.93034 9.42798 3.27051 10.0878 3.27051 10.9017C3.27051 11.7157 3.93034 12.3755 4.74428 12.3755Z" stroke="black" stroke-width="1.42849" stroke-linecap="round" stroke-linejoin="round"/>
<path d="M10.1163 12.3755C10.9303 12.3755 11.5901 11.7157 11.5901 10.9017C11.5901 10.0878 10.9303 9.42798 10.1163 9.42798C9.30241 9.42798 8.64258 10.0878 8.64258 10.9017C8.64258 11.7157 9.30241 12.3755 10.1163 12.3755Z" stroke="black" stroke-width="1.42849" stroke-linecap="round" stroke-linejoin="round"/>
<path d="M7.42969 1.94312L7.42969 3.65843" stroke="black" stroke-width="1.42849" stroke-linecap="round" stroke-linejoin="round"/>
</svg>
